HIERARCHY
ROOT hips
{
  OFFSET 0 10.6860622 2.3727825e-15
  CHANNELS 6 Xposition Yposition Zposition Yrotation Xrotation Zrotation
  JOINT leftUpperLeg
  {
    OFFSET 0.6642549969 -0.9402397400000004 0
    CHANNELS 3 Yrotation Xrotation Zrotation
    JOINT leftLowerLeg
    {
      OFFSET 0 -3.997221335632195 0
      CHANNELS 3 Yrotation Xrotation Zrotation
      JOINT leftFoot
      {
        OFFSET -0.13777839790000004 -4.6145792000000005 -0.22186036399999998
        CHANNELS 3 Yrotation Xrotation Zrotation
        JOINT leftToes
        {
          OFFSET -0.03777410834999995 -0.9130806927000008 0.85230013
          CHANNELS 3 Yrotation Xrotation Zrotation
          End Site
          {
            OFFSET -0.03777410834999995 -0.9130806927000008 0.85230013
          }
        }
      }
    }
  }
  JOINT rightUpperLeg
  {
    OFFSET -0.6642778626 -0.9402397400000004 0
    CHANNELS 3 Yrotation Xrotation Zrotation
    JOINT rightLowerLeg
    {
      OFFSET 0 -3.997221452859387 0
      CHANNELS 3 Yrotation Xrotation Zrotation
      JOINT rightFoot
      {
        OFFSET 0.1377926176 -4.6145792000000005 -0.22185782299999995
        CHANNELS 3 Yrotation Xrotation Zrotation
        JOINT rightToes
        {
          OFFSET 0.037780746850000047 -0.9130806927000008 0.85230167
          CHANNELS 3 Yrotation Xrotation Zrotation
          End Site
          {
            OFFSET 0.037780746850000047 -0.9130806927000008 0.85230167
          }
        }
      }
    }
  }
  JOINT spine
  {
    OFFSET 0 0.13988381660000015 0
    CHANNELS 3 Yrotation Xrotation Zrotation
    JOINT chest
    {
      OFFSET 0 0.6191039003973773 0
      CHANNELS 3 Yrotation Xrotation Zrotation
      JOINT upperChest
      {
        OFFSET 0 0.9855186130586943 0
        CHANNELS 3 Yrotation Xrotation Zrotation
        JOINT leftShoulder
        {
          OFFSET 0.1807663869 1.5087829790000005 0
          CHANNELS 3 Yrotation Xrotation Zrotation
          JOINT leftUpperArm
          {
            OFFSET 0.5985063006419806 0 0
            CHANNELS 3 Yrotation Xrotation Zrotation
            JOINT leftLowerArm
            {
              OFFSET 2.2993332369501065 0 0
              CHANNELS 3 Yrotation Xrotation Zrotation
              JOINT leftHand
              {
                OFFSET 2.395047042602395 0 0
                CHANNELS 3 Yrotation Xrotation Zrotation
                JOINT leftIndexProximal
                {
                  OFFSET 0.5766295810000004 0.04556643899499946 0.17265095988184
                  CHANNELS 3 Yrotation Xrotation Zrotation
                  JOINT leftIndexIntermediate
                  {
                    OFFSET 0.2957229000000008 -0.019352197700001517 -0.007932640616999987
                    CHANNELS 3 Yrotation Xrotation Zrotation
                    JOINT leftIndexDistal
                    {
                      OFFSET 0.19008243099999922 -0.012484908149998475 -0.002786250786000012
                      CHANNELS 3 Yrotation Xrotation Zrotation
                      End Site
                      {
                        OFFSET 0.19008243099999922 -0.012484908149998475 -0.002786250786000012
                      }
                    }
                  }
                }
                JOINT leftMiddleProximal
                {
                  OFFSET 0.5834975091000001 0.0524350405149987 0.02204081888183999
                  CHANNELS 3 Yrotation Xrotation Zrotation
                  JOINT leftMiddleIntermediate
                  {
                    OFFSET 0.33880573540000003 -0.019871473270000717 -0.00000971183179999946
                    CHANNELS 3 Yrotation Xrotation Zrotation
                    JOINT leftMiddleDistal
                    {
                      OFFSET 0.20676022730000088 -0.012221336379999448 0.0001471936708000235
                      CHANNELS 3 Yrotation Xrotation Zrotation
                      End Site
                      {
                        OFFSET 0.20676022730000088 -0.012221336379999448 0.0001471936708000235
                      }
                    }
                  }
                }
                JOINT leftLittleProximal
                {
                  OFFSET 0.5344154683999995 -0.012880921405001189 -0.24414037221816004
                  CHANNELS 3 Yrotation Xrotation Zrotation
                  JOINT leftLittleIntermediate
                  {
                    OFFSET 0.21758961730000093 -0.011650919939999227 0.011893592810000034
                    CHANNELS 3 Yrotation Xrotation Zrotation
                    JOINT leftLittleDistal
                    {
                      OFFSET 0.1475273964999999 -0.008152365682999818 0.006001092492999946
                      CHANNELS 3 Yrotation Xrotation Zrotation
                      End Site
                      {
                        OFFSET 0.1475273964999999 -0.008152365682999818 0.006001092492999946
                      }
                    }
                  }
                }
                JOINT leftRingProximal
                {
                  OFFSET 0.5799399463000003 0.026911854694997794 -0.12150566991816003
                  CHANNELS 3 Yrotation Xrotation Zrotation
                  JOINT leftRingIntermediate
                  {
                    OFFSET 0.26167887460000006 -0.013480186499999602 0.010996293000000053
                    CHANNELS 3 Yrotation Xrotation Zrotation
                    JOINT leftRingDistal
                    {
                      OFFSET 0.17667108799999987 -0.008990287899999228 0.0055541023999999065
                      CHANNELS 3 Yrotation Xrotation Zrotation
                      End Site
                      {
                        OFFSET 0.17667108799999987 -0.008990287899999228 0.0055541023999999065
                      }
                    }
                  }
                }
                JOINT leftThumbProximal
                {
                  OFFSET 0.11018806699999972 -0.09448718900500053 0.17047963138184
                  CHANNELS 3 Yrotation Xrotation Zrotation
                  JOINT leftThumbIntermediate
                  {
                    OFFSET 0.31062601459999983 -0.08126270900000132 0.15443142000000007
                    CHANNELS 3 Yrotation Xrotation Zrotation
                    JOINT leftThumbDistal
                    {
                      OFFSET 0.21627175790000086 -0.08833193599999878 0.018771167799999988
                      CHANNELS 3 Yrotation Xrotation Zrotation
                      End Site
                      {
                        OFFSET 0.21627175790000086 -0.08833193599999878 0.018771167799999988
                      }
                    }
                  }
                }
              }
            }
          }
        }
        JOINT neck
        {
          OFFSET 0 1.5463305265074576 0
          CHANNELS 3 Yrotation Xrotation Zrotation
          JOINT head
          {
            OFFSET 0 0.8456443600000344 0
            CHANNELS 3 Yrotation Xrotation Zrotation
            JOINT leftEye
            {
              OFFSET 0.30408573140000006 0.5104519199999995 0.1276382305
              CHANNELS 3 Yrotation Xrotation Zrotation
              End Site
              {
                OFFSET 0.30408573140000006 0.5104519199999995 0.1276382305
              }
            }
            JOINT rightEye
            {
              OFFSET -0.30409491089999996 0.5104519199999995 0.1276379445
              CHANNELS 3 Yrotation Xrotation Zrotation
              End Site
              {
                OFFSET -0.30409491089999996 0.5104519199999995 0.1276379445
              }
            }
            JOINT jaw
            {
              OFFSET -3.155239131000001e-7 -0.11984121820000082 0.60178107
              CHANNELS 3 Yrotation Xrotation Zrotation
              End Site
              {
                OFFSET -3.155239131000001e-7 -0.11984121820000082 0.60178107
              }
            }
          }
        }
        JOINT rightShoulder
        {
          OFFSET -0.1807303465 1.5087829790000005 0
          CHANNELS 3 Yrotation Xrotation Zrotation
          JOINT rightUpperArm
          {
            OFFSET -0.5985063796536958 0 0
            CHANNELS 3 Yrotation Xrotation Zrotation
            JOINT rightLowerArm
            {
              OFFSET -2.2993322059002854 0 0
              CHANNELS 3 Yrotation Xrotation Zrotation
              JOINT rightHand
              {
                OFFSET -2.395045314457259 0 0
                CHANNELS 3 Yrotation Xrotation Zrotation
                JOINT rightIndexProximal
                {
                  OFFSET -0.5764487688300002 0.0441371204405987 0.17361932004999997
                  CHANNELS 3 Yrotation Xrotation Zrotation
                  JOINT rightIndexIntermediate
                  {
                    OFFSET -0.29573011380000047 -0.01934826376999843 -0.007698921482999974
                    CHANNELS 3 Yrotation Xrotation Zrotation
                    JOINT rightIndexDistal
                    {
                      OFFSET -0.19008373999999884 -0.012503266380000655 -0.0026365778999999897
                      CHANNELS 3 Yrotation Xrotation Zrotation
                      End Site
                      {
                        OFFSET -0.19008373999999884 -0.012503266380000655 -0.0026365778999999897
                      }
                    }
                  }
                }
                JOINT rightMiddleProximal
                {
                  OFFSET -0.5834852037300005 0.05211639405060153 0.02307162440000001
                  CHANNELS 3 Yrotation Xrotation Zrotation
                  JOINT rightMiddleIntermediate
                  {
                    OFFSET -0.33880114510000003 -0.019952774050000954 0.0002455003561999819
                    CHANNELS 3 Yrotation Xrotation Zrotation
                    JOINT rightMiddleDistal
                    {
                      OFFSET -0.20675694929999955 -0.012273788999999091 0.00030209124000002766
                      CHANNELS 3 Yrotation Xrotation Zrotation
                      End Site
                      {
                        OFFSET -0.20675694929999955 -0.012273788999999091 0.00030209124000002766
                      }
                    }
                  }
                }
                JOINT rightLittleProximal
                {
                  OFFSET -0.5346811737299992 -0.011214256288399227 -0.24363941305000003
                  CHANNELS 3 Yrotation Xrotation Zrotation
                  JOINT rightLittleIntermediate
                  {
                    OFFSET -0.21757715980000092 -0.011771559690000988 0.01201554387
                    CHANNELS 3 Yrotation Xrotation Zrotation
                    JOINT rightLittleDistal
                    {
                      OFFSET -0.1475201849000004 -0.00822055339600003 0.006082065407000015
                      CHANNELS 3 Yrotation Xrotation Zrotation
                      End Site
                      {
                        OFFSET -0.1475201849000004 -0.00822055339600003 0.006082065407000015
                      }
                    }
                  }
                }
                JOINT rightRingProximal
                {
                  OFFSET -0.5800810755299999 0.027657985680600072 -0.12066365025000003
                  CHANNELS 3 Yrotation Xrotation Zrotation
                  JOINT rightRingIntermediate
                  {
                    OFFSET -0.26166445029999974 -0.013623118409999302 0.011164098990000045
                    CHANNELS 3 Yrotation Xrotation Zrotation
                    JOINT rightRingDistal
                    {
                      OFFSET -0.17666387530000027 -0.009072900100000503 0.005668185599999959
                      CHANNELS 3 Yrotation Xrotation Zrotation
                      End Site
                      {
                        OFFSET -0.17666387530000027 -0.009072900100000503 0.005668185599999959
                      }
                    }
                  }
                }
                JOINT rightThumbProximal
                {
                  OFFSET -0.10997596379000074 -0.09577489355940072 0.16989765924999997
                  CHANNELS 3 Yrotation Xrotation Zrotation
                  JOINT rightThumbIntermediate
                  {
                    OFFSET -0.31036620999999986 -0.08229339117999834 0.15440884469999996
                    CHANNELS 3 Yrotation Xrotation Zrotation
                    JOINT rightThumbDistal
                    {
                      OFFSET -0.21631306399999906 -0.08825326400000111 0.018656797720000014
                      CHANNELS 3 Yrotation Xrotation Zrotation
                      End Site
                      {
                        OFFSET -0.21631306399999906 -0.08825326400000111 0.018656797720000014
                      }
                    }
                  }
                }
              }
            }
          }
        }
      }
    }
  }
}
MOTION
Frames: 9
Frame Time: 0.03333333333333333
0 11.682712981546562 0 0 0 0 0 0 -5.826343164929014 -0.3712483961610101 -3.6333298826370974 5.838118207697276 0 0 0 0 0 0 0 0 5.826343164929014 0.3712483961610101 -3.6333298826370974 -5.838118207697276 0 0 0 0 0 0 0 -4.610651315171937 0 0 3.0831277533083026 0 0 0 0 0 1.5275236235667615 0 0 0 0 0 0 0 0 0 0 0 0 0 0 0 0 0 0 0 0 0 0 0 0 0 0 0 0 0 0 0 0 0 0 0 0 0 0 0 0 0 0 0 0 0 0 0 0 0 0 0 0 0 0 0 0 1.5275236235667615 0 0 0 0 0 0 0 0 0 0 0 0 0 0 1.5275236235667615 0 0 0 0 0 0 0 0 0 0 0 0 0 0 0 0 0 0 0 0 0 0 0 0 0 0 0 0 0 0 0 0 0 0 0 0 0 0 0 0 0 0 0 0 0 0 0 0 0 0 0 0 0 0 0
0 -0.7876355002424792 7.7433644848544585 -179.99999613527856 75.00404836827043 -179.9999952668952 179.54181148834462 -76.02005977019549 -178.33315427811934 0.4283266666116604 -2.209466598344991 0.14804165167436173 5.6887207387030365 38.44578125760792 7.086505818236559 0 0 0 172.90716529792238 -76.79408571691869 -173.9929404137578 -0.3392576216321803 -4.006906627614523 -1.0228301772364108 -7.140174622638373 39.45657519643543 -6.5741200710590935 0 0 0 -1.0961282101550935 -34.774934669983075 -0.48639854084575074 -2.314176793748062 26.784253416442326 -2.3608028909861827 0 0 0 -42.219104774231084 9.979033676643988 9.451162381015163 -21.314708045944126 -30.32460612479525 -4.128473955284815 -25.980094867854234 3.975214533280025 14.177923363675054 -10.804465533012475 -3.4008303834291107 43.717537079483 0 0 0 0 0 0 0 0 0 0 0 0 0 0 0 0 0 0 0 0 0 0 0 0 0 0 0 0 0 0 0 0 0 0 0 0 0 0 0 0 0 0 0 0 0 0 1.7425925879041178 0 0 0.27451899958149795 0 0 0 0 0 0 0 0 0 0 41.17883083489989 9.84947856326711 -9.14502754138412 22.730384568836836 -30.269904154463347 4.20129107162196 27.49976019672169 4.308057431941992 -14.471740627263193 8.867325497653127 -3.3837469615543663 -43.924343210055696 0 0 0 0 0 0 0 0 0 0 0 0 0 0 0 0 0 0 0 0 0 0 0 0 0 0 0 0 0 0 0 0 0 0 0 0 0 0 0 0 0 0 0 0 0
0 -0.7876355002424792 7.710937599027529 -179.99999613527856 75.00404836827043 -179.9999952668952 -179.6262269699723 -75.88941588956818 -179.18576675850468 0.4283266666116604 -2.209466598344991 0.14804165167436173 5.867772680214049 38.67666226617517 7.04981796656307 0 0 0 172.90716529792238 -76.79408571691869 -173.9929404137578 -0.3392576216321803 -4.006906627614523 -1.0228301772364108 -7.140174622638373 39.45657519643543 -6.5741200710590935 0 0 0 -1.0784434241578025 -33.395433775862124 -0.5180814621555768 -2.2583744686532783 23.82907537915516 -2.2302983217468806 0 0 0 -42.422656964421286 10.52096345556359 8.413021262025678 -21.314708045944126 -30.32460612479525 -4.128473955284815 -25.980096406549425 3.975214533280025 14.177923363675054 -10.686262410700564 -3.124250530604828 43.16407731504162 0 0 0 0 0 0 0 0 0 0 0 0 0 0 0 0 0 0 0 0 0 0 0 0 0 0 0 0 0 0 0 0 0 0 0 0 0 0 0 0 0 0 0 0 0 0 1.7415876587282684 0 0 0.27323600325742087 0 0 0 0 0 0 0 0 0 0 41.446359701519896 10.39708188412453 -8.150244024110751 22.730384568836836 -30.269904154463347 4.20129107162196 27.49976019672169 4.308057431941992 -14.47174228531646 8.874598930554885 -3.065864361374209 -43.34078435330251 0 0 0 0 0 0 0 0 0 0 0 0 0 0 0 0 0 0 0 0 0 0 0 0 0 0 0 0 0 0 0 0 0 0 0 0 0 0 0 0 0 0 0 0 0
0 -0.7876355002424792 7.678510981592871 -179.99999613527856 75.00404836827043 -179.9999952668952 -178.80976299923623 -75.75580978095412 179.97710890183092 0.4283266666116604 -2.209466598344991 0.14804165167436173 6.047238159251235 38.907662850878495 7.01393528045169 0 0 0 172.90716529792238 -76.79408571691869 -173.9929404137578 -0.3392576216321803 -4.006906627614523 -1.0228301772364108 -7.140174622638373 39.45657519643543 -6.5741200710590935 0 0 0 -1.0618932731818014 -32.012690140180034 -0.5488451327354037 -2.2104509881855914 20.840251781584108 -2.10422794546777 0 0 0 -42.63691441437677 11.060053976967417 7.369340165899282 -21.314708045944126 -30.32460612479525 -4.128473955284815 -25.980094867854234 3.975214533280025 14.177923363675054 -10.570711438130974 -2.8464168389693705 42.61104859520789 0 0 0 0 0 0 0 0 0 0 0 0 0 0 0 0 0 0 0 0 0 0 0 0 0 0 0 0 0 0 0 0 0 0 0 0 0 0 0 0 0 0 0 0 0 0 1.7405826233173745 0 0 0.27195399425725075 0 0 0 0 0 0 0 0 0 0 41.72444981313016 10.94086188540675 -7.149523426846539 22.730387920274378 -30.269904154463347 4.20129107162196 27.49976019672169 4.308057431941992 -14.471740627263193 8.885119217316666 -2.7479011846864907 -42.75703712079587 0 0 0 0 0 0 0 0 0 0 0 0 0 0 0 0 0 0 0 0 0 0 0 0 0 0 0 0 0 0 0 0 0 0 0 0 0 0 0 0 0 0 0 0 0
0 -0.7876355002424792 7.646084095765942 -179.99999613527856 75.00404836827043 -179.9999952668952 -178.0086960353007 -75.6192803710552 179.15537636821162 0.4283266666116604 -2.209466598344991 0.14804165167436173 6.227120115600021 39.13876593793642 6.978859903851548 0 0 0 172.90716529792238 -76.79408571691869 -173.9929404137578 -0.3392576216321803 -4.006906627614523 -1.0228301772364108 -7.140176818211121 39.45657519643543 -6.574121169560119 0 0 0 -1.046414823124792 -30.627083624863435 -0.5787582840109151 -2.1699376423109547 17.82134393134181 -1.9818762234732323 0 0 0 -42.861884359845504 11.595977827605575 6.32013524813946 -21.314709888838802 -30.32460612479525 -4.128473955284815 -25.980096406549425 3.975214533280025 14.177923363675054 -10.457832197976293 -2.5673649645620946 42.058487239785016 0 0 0 0 0 0 0 0 0 0 0 0 0 0 0 0 0 0 0 0 0 0 0 0 0 0 0 0 0 0 0 0 0 0 0 0 0 0 0 0 0 0 0 0 0 0 1.7395775884422098 0 0 0.2706709982064422 0 0 0 0 0 0 0 0 0 0 42.013112608002686 11.48050648155186 -6.142869961087304 22.730387920274378 -30.269908108673217 4.20129107162196 27.499761715629468 4.308057431941992 -14.471743943369702 8.898889018387203 -2.4299107335788803 -42.173095578888834 0 0 0 0 0 0 0 0 0 0 0 0 0 0 0 0 0 0 0 0 0 0 0 0 0 0 0 0 0 0 0 0 0 0 0 0 0 0 0 0 0 0 0 0 0
0 -0.7876355002424792 7.6136572099390145 -179.99999613527856 75.00404836827043 -179.9999952668952 -177.2229220672583 -75.47998938572056 178.34892904687226 0.4283265865130706 -2.209466598344991 0.1480426529313992 6.407433721004204 39.369989568801685 6.944612081085758 0 0 0 172.90715328084497 -76.7941006658181 -173.9929272607443 -0.3392576216321803 -4.006906627614523 -1.0228301772364108 -7.140174622638373 39.45657519643543 -6.5741200710590935 0 0 0 -1.0319561094957888 -29.239026789181885 -0.607878699797484 -2.1364506964441348 14.77617373273204 -1.862593241801473 0 0 0 -43.09759449040446 12.12842186130456 5.265423500377844 -21.314708045944126 -30.32460612479525 -4.128473955284815 -25.980094867854234 3.9752132495310266 14.177920865657978 -10.347635908948194 -2.2871389032790583 41.50639055868343 0 0 0 0 0 0 0 0 0 0 0 0 0 0 0 0 0 0 0 0 0 0 0 0 0 0 0 0 0 0 0 0 0 0 0 0 0 0 0 0 0 0 0 0 0 0 1.7385726608733212 0 0 0.2693880022913556 0 0 0 0 0 0 0 0 0 0 42.31234532022778 12.015703521836356 -5.130296594145433 22.730384568836836 -30.269904154463347 4.20129107162196 27.49976019672169 4.308057431941992 -14.471740627263193 8.915901566968325 -2.1119492359737926 -41.588972934092105 0 0 0 0 0 0 0 0 0 0 0 0 0 0 0 0 0 0 0 0 0 0 0 0 0 0 0 0 0 0 0 0 0 0 0 0 0 0 0 0 0 0 0 0 0
0 -0.7876355002424792 7.581230860896628 -179.99999613527856 75.00404836827043 -179.9999952668952 -176.45231301729055 -75.33795909817619 177.55763716749948 0.4283266666116604 -2.209466598344991 0.14804165167436173 6.588178221057117 39.60129883566805 6.9111862346664905 0 0 0 172.90716529792238 -76.79408571691869 -173.99293948458228 -0.3392576216321803 -4.006906627614523 -1.0228301772364108 -7.1401735254417185 39.456570773347806 -6.574118466165757 0 0 0 -1.018464953324395 -27.848907042480363 -0.6362631586341028 -2.1096834293011315 11.708768705363578 -1.7457775224646568 0 0 0 -43.34404426877532 12.657059121843549 4.205235365239485 -21.314704764930276 -30.32460612479525 -4.128473955284815 -25.980094867854234 3.975214533280025 14.177923363675054 -10.2401359522752 -2.005780737988302 40.95477726374956 0 0 0 0 0 0 0 0 0 0 0 0 0 0 0 0 0 0 0 0 0 0 0 0 0 0 0 0 0 0 0 0 0 0 0 0 0 0 0 0 0 0 0 0 0 0 1.7375676270686282 0 0 0.26810500651134767 0 0 0 0 0 0 0 0 0 0 42.622127313674376 12.546144105391573 -4.111829073966195 22.730380921737435 -30.269904154463347 4.20129107162196 27.49976019672169 4.308057431941992 -14.471740627263193 8.936161474707585 -1.7940690260286962 -41.004670139085704 0 0 0 0 0 0 0 0 0 0 0 0 0 0 0 0 0 0 0 0 0 0 0 0 0 0 0 0 0 0 0 0 0 0 0 0 0 0 0 0 0 0 0 0 0
0 -0.7876355002424792 7.548803975069699 -179.99999613527856 75.00404836827043 -179.9999952668952 -175.69672458263844 -75.19326578913137 176.78136020832264 0.4283266666116604 -2.209466598344991 0.14804165167436173 6.769363693381554 39.832711727912596 6.878598125661098 0 0 0 172.90716529792238 -76.79408571691869 -173.9929404137578 -0.3392576216321803 -4.006906627614523 -1.0228301772364108 -7.140174622638373 39.45657519643543 -6.5741200710590935 0 0 0 -1.0058955455239977 -26.457142204557094 -0.6639642144423576 -2.089395782778084 8.623347532070607 -1.6308639116776236 0 0 0 -43.60123829537687 13.181575685841535 3.139601412256982 -21.314708045944126 -30.32460612479525 -4.128473955284815 -25.980094867854234 3.975214533280025 14.177923363675054 -10.135343473311341 -1.7233355600312825 40.40364631732964 0 0 0 0 0 0 0 0 0 0 0 0 0 0 0 0 0 0 0 0 0 0 0 0 0 0 0 0 0 0 0 0 0 0 0 0 0 0 0 0 0 0 0 0 0 0 1.7365625937987346 0 0 0.26682201086577506 0 0 0 0 0 0 0 0 0 0 42.942440378944504 13.07151368495454 -3.087492575593883 22.730384568836836 -30.269904154463347 4.20129107162196 27.49976019672169 4.308057431941992 -14.471740627263193 8.95966602916044 -1.4763269986590206 -40.4201808152192 0 0 0 0 0 0 0 0 0 0 0 0 0 0 0 0 0 0 0 0 0 0 0 0 0 0 0 0 0 0 0 0 0 0 0 0 0 0 0 0 0 0 0 0 0
0 -0.7876355002424792 7.51637708924277 -179.99999613527856 75.00404836827043 -179.9999952668952 -174.95598742937003 -75.04601063214162 176.0199288700109 0.4283266666116604 -2.209466598344991 0.14804165167436173 6.951001275765704 40.06420631431127 6.846856785141125 0 0 0 172.90716529792238 -76.79408571691869 -173.9929404137578 -0.3392576216321803 -4.006906627614523 -1.0228301772364108 -7.140174622638373 39.45657519643543 -6.5741200710590935 0 0 0 -0.9942053553694038 -25.064135938739025 -0.691028173868811 -2.0754093133026488 5.5242752664756 -1.5173187599272975 0 0 0 -43.86915624866592 13.701650404052707 2.068570179425746 -21.314709888838802 -30.32460612479525 -4.128474941822259 -25.980094867854234 3.975214533280025 14.177923363675054 -10.03326511276982 -1.4398477390928333 39.85300146278171 0 0 0 0 0 0 0 0 0 0 0 0 0 0 0 0 0 0 0 0 0 0 0 0 0 0 0 0 0 0 0 0 0 0 0 0 0 0 0 0 0 0 0 0 0 0 1.735557667834016 0 0 0.26554000254037463 0 0 0 0 0 0 0 0 0 0 43.2732722079414 13.591507672091579 -2.0573298660742756 22.730384568836836 -30.269904154463347 4.20129107162196 27.49976019672169 4.308057431941992 -14.471740627263193 8.986415773577294 -1.1587761903150677 -39.83552283746334 0 0 0 0 0 0 0 0 0 0 0 0 0 0 0 0 0 0 0 0 0 0 0 0 0 0 0 0 0 0 0 0 0 0 0 0 0 0 0 0 0 0 0 0 0
